<?xml version="1.0" encoding="utf-8"?>
<!-- Generator: Adobe Illustrator 16.0.4, SVG Export Plug-In . SVG Version: 6.00 Build 0)  -->
<!DOCTYPE svg PUBLIC "-//W3C//DTD SVG 1.1//EN" "http://www.w3.org/Graphics/SVG/1.1/DTD/svg11.dtd">
<svg version="1.1" id="Layer_1" xmlns="http://www.w3.org/2000/svg" xmlns:xlink="http://www.w3.org/1999/xlink" x="0px" y="0px"
	 width="266.5px" height="266.5px" viewBox="0 0 266.5 266.5" enable-background="new 0 0 266.5 266.5" xml:space="preserve">
<g id="Layer_2">
	<circle fill="#FFFFFF" stroke="#000000" stroke-miterlimit="10" cx="132.812" cy="145.375" r="102.688"/>
</g>
<g id="Layer_1_1_">
	<g id="Your_Icon">
		<g>
			<path fill="#FFFFFF" stroke="#000000" stroke-miterlimit="10" d="M149.609,160.8l-2.002,1.946
				c14.797,1.652,25.125,6.546,25.125,12.809c-0.002,8.153-16.575,15.553-39.205,15.553c-0.01,0-0.021,0-0.028,0
				c-0.011,0-0.021,0-0.03,0c-22.629,0-39.203-7.398-39.203-15.551c0-6.265,10.329-11.156,25.123-12.811l-2-1.945
				c-19.919,1.973-31.566,8.336-31.566,18.172c0,13.268,21.339,22.436,47.677,22.436c26.34,0,47.68-9.168,47.68-22.436
				C181.176,169.136,169.529,162.771,149.609,160.8z"/>
			<path fill="#FFFFFF" stroke="#000000" stroke-miterlimit="10" d="M133.499,181.051c0.005,0.012,0.028,0.049,0.028,0.049
				s31.859-48.887,31.859-64.959c0-23.649-16.146-33.939-31.889-33.972c-15.743,0.032-31.891,10.322-31.891,33.972
				c0,16.072,31.86,64.959,31.86,64.959S133.491,181.062,133.499,181.051z M122.454,114.807c0-6.101,4.944-11.045,11.045-11.045
				c6.101,0,11.046,4.944,11.046,11.045c0,6.1-4.945,11.044-11.046,11.044C127.398,125.852,122.454,120.907,122.454,114.807z"/>
		</g>
	</g>
</g>
</svg>
