<?xml version="1.0" encoding="utf-8"?>
<!-- Generator: Adobe Illustrator 16.0.4, SVG Export Plug-In . SVG Version: 6.00 Build 0)  -->
<!DOCTYPE svg PUBLIC "-//W3C//DTD SVG 1.1//EN" "http://www.w3.org/Graphics/SVG/1.1/DTD/svg11.dtd">
<svg version="1.1" xmlns="http://www.w3.org/2000/svg" xmlns:xlink="http://www.w3.org/1999/xlink" x="0px" y="0px" width="315.5px"
	 height="315.5px" viewBox="0 0 315.5 315.5" enable-background="new 0 0 315.5 315.5" xml:space="preserve">
<g id="Layer_2">
	<ellipse fill="#FFFFFF" stroke="#000000" stroke-miterlimit="10" cx="143.5" cy="170.5" rx="102" ry="103"/>
</g>
<g id="Layer_1">
	<g id="Your_Icon">
		<g>
			<path fill="#FFFFFF" stroke="#000000" stroke-miterlimit="10" d="M156.359,185.956l-1.521,1.48
				c11.25,1.256,19.104,4.978,19.104,9.739c-0.002,6.199-12.604,11.825-29.81,11.825c-0.008,0-0.017,0-0.022,0
				c-0.008,0-0.017,0-0.023,0c-17.206,0-29.809-5.626-29.809-11.824c0-4.763,7.854-8.482,19.104-9.74l-1.521-1.479
				c-15.146,1.5-24.002,6.339-24.002,13.817c0,10.088,16.226,17.059,36.252,17.059c20.027,0,36.254-6.971,36.254-17.059
				C180.361,192.295,171.506,187.456,156.359,185.956z"/>
			<path fill="#FFFFFF" stroke="#000000" stroke-miterlimit="10" d="M144.109,201.354c0.004,0.008,0.022,0.037,0.022,0.037
				s24.224-37.172,24.224-49.394c0-17.982-12.275-25.807-24.246-25.831c-11.971,0.024-24.248,7.849-24.248,25.831
				c0,12.221,24.225,49.394,24.225,49.394S144.104,201.362,144.109,201.354z M135.711,150.984c0-4.639,3.76-8.398,8.398-8.398
				s8.398,3.76,8.398,8.398c0,4.638-3.76,8.397-8.398,8.397C139.471,159.383,135.711,155.623,135.711,150.984z"/>
		</g>
	</g>
</g>
</svg>
